<svg width="202" height="207" viewBox="0 0 202 207" fill="none" xmlns="http://www.w3.org/2000/svg">
<path d="M82 165.167L56 150L30 165.167V191.464L56 206.631L82 191.464V165.167Z" fill="#F1B81C"/>
<path d="M112 115.167L86 100L60 115.167V141.464L86 156.631L112 141.464V115.167Z" fill="#F1B81C"/>
<path d="M52 115.167L26 100L0 115.167V141.464L26 156.631L52 141.464V115.167Z" fill="#F1B81C"/>
<path d="M142 65.1667L116 50L90 65.1667V91.4642L116 106.631L142 91.4642V65.1667Z" fill="#F1B81C"/>
<path d="M172 15.1667L146 0L120 15.1667V41.4642L146 56.6306L172 41.4642V15.1667Z" fill="#F1B81C"/>
<path d="M82 65.1667L56 50L30 65.1667V91.4642L56 106.631L82 91.4642V65.1667Z" fill="#F1B81C"/>
<path d="M142 165.167L116 150L90 165.167V191.464L116 206.631L142 191.464V165.167Z" fill="#F1B81C"/>
<path d="M202 165.167L176 150L150 165.167V191.464L176 206.631L202 191.464V165.167Z" fill="#F1B81C"/>
</svg>
